<svg id="Capa_1" enable-background="new 0 0 342.425 342.425" height="512" viewBox="0 0 342.425 342.425" width="512" xmlns="http://www.w3.org/2000/svg"><g><path d="m342.425 203.082-57.014 13.196c-.387-5.675-1.093-11.323-2.115-16.918-3.807-22.205-14.55-62.005-44.114-95.207-43.607-48.894 21.148-69.703 21.148-69.703s59.595 41.323 79.22 150.657c1.099 5.667 2.072 11.715 2.875 17.975z" fill="#2d93ba"/><path d="m103.074 104.026c-29.607 33.033-40.308 72.791-44.114 94.996-1.006 5.706-1.656 11.47-1.946 17.257l-57.014-13.197c.804-6.26 1.776-12.393 2.834-18.272 19.625-109.165 79.219-150.487 79.219-150.487s64.586 20.809 21.021 69.703z" fill="#2d93ba"/><path d="m285.622 301.419h-62.175c-18.594-.006-36.208-8.34-48.005-22.713-1.537-1.909-2.95-3.915-4.23-6.006-.592-.931-1.142-1.903-1.692-2.876-4.593-8.163-7.024-17.364-7.063-26.731l.296-50.755v-1.396-9.22-4.23-9.39l.634-85.522c2.457.443 4.948.669 7.444.677 1.57.008 3.138-.091 4.695-.296.926-.047 1.846-.174 2.749-.381 20.032-3.665 34.608-21.085 34.682-41.45.011-2.295-.173-4.588-.55-6.852h47.963l3.511 105.739 1.015 30.495v5.879l1.396 7.486 18.187 110.688z" fill="#27a2db"/><path d="m179.672 243.094c.043 7.916-1.616 15.748-4.864 22.967-.851 1.943-1.841 3.823-2.961 5.625-.194.349-.405.688-.634 1.015-1.284 2.047-2.697 4.011-4.23 5.879-11.844 14.43-29.549 22.77-48.217 22.713h-62.174l1.015-6.767 16.918-110.73 1.015-6.725.296-6.64 1.227-27.661 4.653-108.361h47.836c-.398 2.22-.611 4.47-.634 6.725-.043 19.928 13.91 37.148 33.414 41.238l1.311.254c2.457.443 4.948.669 7.444.677 1.57.008 3.138-.091 4.695-.296.926-.047 1.846-.174 2.749-.381l.55 72.748v10.532 10.109 22.967z" fill="#27a2db"/><path d="m118.681 308.144h-62.09v-13.492h62.09c19.405.127 37.44-9.983 47.456-26.604l11.589 6.852c-12.454 20.706-34.882 33.334-59.045 33.244z" fill="#2d93ba"/><path d="m285.622 294.652v13.45h-62.175c-18.382.086-36.028-7.214-48.978-20.26-1.184-1.227-2.326-2.411-3.384-3.68-1.516-1.734-2.929-3.555-4.23-5.456-1.368-1.938-2.638-3.942-3.807-6.006-4.868-9.105-7.383-19.282-7.317-29.607l1.988-48.217v-3.722-1.692l.254-5.498v-4.23-1.734-5.414l.465-10.405 3.891-79.812 1.311.254c2.457.443 4.948.669 7.444.677 1.57.008 3.138-.091 4.695-.296l-3.088 76.132-.508 11.081-.296 7.571v1.184l-.254 5.414v4.864 2.03 3.637l-2.453 48.175c-.047 7.994 1.901 15.873 5.668 22.924 2.391 4.675 5.487 8.954 9.178 12.689 10.414 10.511 24.624 16.381 39.419 16.284z" fill="#2d93ba"/><path d="m266.039 170.43c-62.933 9.487-126.932 9.487-189.865 0-3.714-.619-7.227 1.89-7.846 5.604s1.89 7.227 5.604 7.846c31.878 4.923 64.094 7.327 96.349 7.19 32.731.08 65.42-2.324 97.787-7.19 3.694-.388 6.374-3.697 5.986-7.39-.388-3.694-3.697-6.374-7.39-5.986-.21.022-.419.054-.626.096v-.17z" fill="#f7be56"/><g fill="#fcd462"><path d="m166.137 184.134c-.249-7.389 4.021-14.188 10.785-17.172 3.045-1.438 12.308-4.23 13.323 1.734.804 4.864-26.815 12.689-29.607 14.127-14.55 6.26-26.731 15.522-29.607 31.975-.296 1.734 1.057 11.716 1.819 7.317 3.764-21.994 26.731-27.957 44.453-35.19 10.701-4.23 18.229-9.728 16.622-22.078-1.438-10.87-11.208-12.689-20.048-6.556-9.643 6.598-10.997 18.187-9.77 28.888.719 6.936 2.453.93 2.03-3.045z"/><path d="m197.859 214.587c-1.61-9.552-6.95-18.073-14.846-23.686-1.184-.931-2.369-1.734-3.637-2.58l-2.495-1.48c-1.692-.973-3.426-1.861-5.245-2.707-1.057-.55-2.157-1.015-3.257-1.523l-2.242-.804-.973-.296v-.465c0-1.184 0-2.326 0-3.553-.125-1.575-.337-3.143-.634-4.695-.337-1.545-.804-3.059-1.396-4.526-.897-2.383-2.231-4.578-3.933-6.471-1.187-1.359-2.536-2.566-4.018-3.595-8.84-6.048-18.652-4.23-20.048 6.598-.754 4.116.045 8.366 2.242 11.927 3.606 4.729 8.607 8.206 14.296 9.939h.381l5.879 2.369c1.565.55 3.088 1.184 4.653 1.776h.254c.508.254 1.057.423 1.565.634 2.284.931 4.568 1.861 6.767 2.961 2.831 1.215 5.573 2.628 8.205 4.23 8.818 4.83 14.964 13.403 16.707 23.305.76 4.231 2.071-5.624 1.775-7.358zm-59.214-46.103c1.015-6.133 10.32-3.172 13.323-1.692 2.528 1.27 4.762 3.057 6.556 5.245 1.394 1.608 2.483 3.457 3.214 5.456.396 1.021.666 2.086.804 3.172l-4.23-1.48-5.075-1.819c-7.402-2.918-15.015-6.175-14.634-8.882z"/><path d="m342.425 203.082-57.014 13.196c-.387-5.675-1.093-11.323-2.115-16.918l56.126-14.254c1.227 5.668 2.2 11.716 3.003 17.976z"/><path d="m58.96 199.022c-1.006 5.706-1.656 11.47-1.946 17.257l-57.014-13.197c.804-6.26 1.776-12.393 2.834-18.272z"/></g></g></svg>